<?xml version="1.0" encoding="utf-8" standalone="no"?>
<!DOCTYPE svg PUBLIC "-//W3C//DTD SVG 1.1//EN"
  "http://www.w3.org/Graphics/SVG/1.1/DTD/svg11.dtd">
<svg xmlns:xlink="http://www.w3.org/1999/xlink" width="984.331937pt" height="379.500838pt" viewBox="0 0 984.331937 379.500838" xmlns="http://www.w3.org/2000/svg" version="1.1">
 <metadata>
  <rdf:RDF xmlns:dc="http://purl.org/dc/elements/1.1/" xmlns:cc="http://creativecommons.org/ns#" xmlns:rdf="http://www.w3.org/1999/02/22-rdf-syntax-ns#">
   <cc:Work>
    <dc:type rdf:resource="http://purl.org/dc/dcmitype/StillImage"/>
    <dc:date>2026-03-29T18:18:17.693967</dc:date>
    <dc:format>image/svg+xml</dc:format>
    <dc:creator>
     <cc:Agent>
      <dc:title>Matplotlib v3.10.8, https://matplotlib.org/</dc:title>
     </cc:Agent>
    </dc:creator>
   </cc:Work>
  </rdf:RDF>
 </metadata>
 <defs>
  <style type="text/css">*{stroke-linejoin: round; stroke-linecap: butt}</style>
 </defs>
 <g id="figure_1">
  <g id="patch_1">
   <path d="M 0 379.500838 
L 984.331937 379.500838 
L 984.331937 0 
L 0 0 
z
" style="fill: #ffffff"/>
  </g>
  <g id="axes_1">
   <g id="patch_2">
    <path d="M 48.982813 341.944588 
L 462.331062 341.944588 
L 462.331062 49.775412 
L 48.982813 49.775412 
z
" style="fill: #ffffff"/>
   </g>
   <g id="matplotlib.axis_1">
    <g id="xtick_1">
     <g id="line2d_1">
      <path d="M 89.105545 341.944588 
L 89.105545 49.775412 
" clip-path="url(#pe226f9696a)" style="fill: none; stroke: #b0b0b0; stroke-opacity: 0.5; stroke-width: 0.4; stroke-linecap: square"/>
     </g>
     <g id="line2d_2">
      <defs>
       <path id="mf8ac7f9145" d="M 0 0 
L 0 3.5 
" style="stroke: #000000; stroke-width: 0.8"/>
      </defs>
      <g>
       <use xlink:href="#mf8ac7f9145" x="89.105545" y="341.944588" style="stroke: #000000; stroke-width: 0.8"/>
      </g>
     </g>
     <g id="text_1">
      <!-- 0 -->
      <g transform="translate(85.924295 356.543025) scale(0.1 -0.1)">
       <defs>
        <path id="DejaVuSans-30" d="M 2034 4250 
Q 1547 4250 1301 3770 
Q 1056 3291 1056 2328 
Q 1056 1369 1301 889 
Q 1547 409 2034 409 
Q 2525 409 2770 889 
Q 3016 1369 3016 2328 
Q 3016 3291 2770 3770 
Q 2525 4250 2034 4250 
z
M 2034 4750 
Q 2819 4750 3233 4129 
Q 3647 3509 3647 2328 
Q 3647 1150 3233 529 
Q 2819 -91 2034 -91 
Q 1250 -91 836 529 
Q 422 1150 422 2328 
Q 422 3509 836 4129 
Q 1250 4750 2034 4750 
z
" transform="scale(0.015625)"/>
       </defs>
       <use xlink:href="#DejaVuSans-30"/>
      </g>
     </g>
    </g>
    <g id="xtick_2">
     <g id="line2d_3">
      <path d="M 147.690166 341.944588 
L 147.690166 49.775412 
" clip-path="url(#pe226f9696a)" style="fill: none; stroke: #b0b0b0; stroke-opacity: 0.5; stroke-width: 0.4; stroke-linecap: square"/>
     </g>
     <g id="line2d_4">
      <g>
       <use xlink:href="#mf8ac7f9145" x="147.690166" y="341.944588" style="stroke: #000000; stroke-width: 0.8"/>
      </g>
     </g>
     <g id="text_2">
      <!-- 20 -->
      <g transform="translate(141.327666 356.543025) scale(0.1 -0.1)">
       <defs>
        <path id="DejaVuSans-32" d="M 1228 531 
L 3431 531 
L 3431 0 
L 469 0 
L 469 531 
Q 828 903 1448 1529 
Q 2069 2156 2228 2338 
Q 2531 2678 2651 2914 
Q 2772 3150 2772 3378 
Q 2772 3750 2511 3984 
Q 2250 4219 1831 4219 
Q 1534 4219 1204 4116 
Q 875 4013 500 3803 
L 500 4441 
Q 881 4594 1212 4672 
Q 1544 4750 1819 4750 
Q 2544 4750 2975 4387 
Q 3406 4025 3406 3419 
Q 3406 3131 3298 2873 
Q 3191 2616 2906 2266 
Q 2828 2175 2409 1742 
Q 1991 1309 1228 531 
z
" transform="scale(0.015625)"/>
       </defs>
       <use xlink:href="#DejaVuSans-32"/>
       <use xlink:href="#DejaVuSans-30" transform="translate(63.623047 0)"/>
      </g>
     </g>
    </g>
    <g id="xtick_3">
     <g id="line2d_5">
      <path d="M 206.274788 341.944588 
L 206.274788 49.775412 
" clip-path="url(#pe226f9696a)" style="fill: none; stroke: #b0b0b0; stroke-opacity: 0.5; stroke-width: 0.4; stroke-linecap: square"/>
     </g>
     <g id="line2d_6">
      <g>
       <use xlink:href="#mf8ac7f9145" x="206.274788" y="341.944588" style="stroke: #000000; stroke-width: 0.8"/>
      </g>
     </g>
     <g id="text_3">
      <!-- 40 -->
      <g transform="translate(199.912288 356.543025) scale(0.1 -0.1)">
       <defs>
        <path id="DejaVuSans-34" d="M 2419 4116 
L 825 1625 
L 2419 1625 
L 2419 4116 
z
M 2253 4666 
L 3047 4666 
L 3047 1625 
L 3713 1625 
L 3713 1100 
L 3047 1100 
L 3047 0 
L 2419 0 
L 2419 1100 
L 313 1100 
L 313 1709 
L 2253 4666 
z
" transform="scale(0.015625)"/>
       </defs>
       <use xlink:href="#DejaVuSans-34"/>
       <use xlink:href="#DejaVuSans-30" transform="translate(63.623047 0)"/>
      </g>
     </g>
    </g>
    <g id="xtick_4">
     <g id="line2d_7">
      <path d="M 264.85941 341.944588 
L 264.85941 49.775412 
" clip-path="url(#pe226f9696a)" style="fill: none; stroke: #b0b0b0; stroke-opacity: 0.5; stroke-width: 0.4; stroke-linecap: square"/>
     </g>
     <g id="line2d_8">
      <g>
       <use xlink:href="#mf8ac7f9145" x="264.85941" y="341.944588" style="stroke: #000000; stroke-width: 0.8"/>
      </g>
     </g>
     <g id="text_4">
      <!-- 60 -->
      <g transform="translate(258.49691 356.543025) scale(0.1 -0.1)">
       <defs>
        <path id="DejaVuSans-36" d="M 2113 2584 
Q 1688 2584 1439 2293 
Q 1191 2003 1191 1497 
Q 1191 994 1439 701 
Q 1688 409 2113 409 
Q 2538 409 2786 701 
Q 3034 994 3034 1497 
Q 3034 2003 2786 2293 
Q 2538 2584 2113 2584 
z
M 3366 4563 
L 3366 3988 
Q 3128 4100 2886 4159 
Q 2644 4219 2406 4219 
Q 1781 4219 1451 3797 
Q 1122 3375 1075 2522 
Q 1259 2794 1537 2939 
Q 1816 3084 2150 3084 
Q 2853 3084 3261 2657 
Q 3669 2231 3669 1497 
Q 3669 778 3244 343 
Q 2819 -91 2113 -91 
Q 1303 -91 875 529 
Q 447 1150 447 2328 
Q 447 3434 972 4092 
Q 1497 4750 2381 4750 
Q 2619 4750 2861 4703 
Q 3103 4656 3366 4563 
z
" transform="scale(0.015625)"/>
       </defs>
       <use xlink:href="#DejaVuSans-36"/>
       <use xlink:href="#DejaVuSans-30" transform="translate(63.623047 0)"/>
      </g>
     </g>
    </g>
    <g id="xtick_5">
     <g id="line2d_9">
      <path d="M 323.444031 341.944588 
L 323.444031 49.775412 
" clip-path="url(#pe226f9696a)" style="fill: none; stroke: #b0b0b0; stroke-opacity: 0.5; stroke-width: 0.4; stroke-linecap: square"/>
     </g>
     <g id="line2d_10">
      <g>
       <use xlink:href="#mf8ac7f9145" x="323.444031" y="341.944588" style="stroke: #000000; stroke-width: 0.8"/>
      </g>
     </g>
     <g id="text_5">
      <!-- 80 -->
      <g transform="translate(317.081531 356.543025) scale(0.1 -0.1)">
       <defs>
        <path id="DejaVuSans-38" d="M 2034 2216 
Q 1584 2216 1326 1975 
Q 1069 1734 1069 1313 
Q 1069 891 1326 650 
Q 1584 409 2034 409 
Q 2484 409 2743 651 
Q 3003 894 3003 1313 
Q 3003 1734 2745 1975 
Q 2488 2216 2034 2216 
z
M 1403 2484 
Q 997 2584 770 2862 
Q 544 3141 544 3541 
Q 544 4100 942 4425 
Q 1341 4750 2034 4750 
Q 2731 4750 3128 4425 
Q 3525 4100 3525 3541 
Q 3525 3141 3298 2862 
Q 3072 2584 2669 2484 
Q 3125 2378 3379 2068 
Q 3634 1759 3634 1313 
Q 3634 634 3220 271 
Q 2806 -91 2034 -91 
Q 1263 -91 848 271 
Q 434 634 434 1313 
Q 434 1759 690 2068 
Q 947 2378 1403 2484 
z
M 1172 3481 
Q 1172 3119 1398 2916 
Q 1625 2713 2034 2713 
Q 2441 2713 2670 2916 
Q 2900 3119 2900 3481 
Q 2900 3844 2670 4047 
Q 2441 4250 2034 4250 
Q 1625 4250 1398 4047 
Q 1172 3844 1172 3481 
z
" transform="scale(0.015625)"/>
       </defs>
       <use xlink:href="#DejaVuSans-38"/>
       <use xlink:href="#DejaVuSans-30" transform="translate(63.623047 0)"/>
      </g>
     </g>
    </g>
    <g id="xtick_6">
     <g id="line2d_11">
      <path d="M 382.028653 341.944588 
L 382.028653 49.775412 
" clip-path="url(#pe226f9696a)" style="fill: none; stroke: #b0b0b0; stroke-opacity: 0.5; stroke-width: 0.4; stroke-linecap: square"/>
     </g>
     <g id="line2d_12">
      <g>
       <use xlink:href="#mf8ac7f9145" x="382.028653" y="341.944588" style="stroke: #000000; stroke-width: 0.8"/>
      </g>
     </g>
     <g id="text_6">
      <!-- 100 -->
      <g transform="translate(372.484903 356.543025) scale(0.1 -0.1)">
       <defs>
        <path id="DejaVuSans-31" d="M 794 531 
L 1825 531 
L 1825 4091 
L 703 3866 
L 703 4441 
L 1819 4666 
L 2450 4666 
L 2450 531 
L 3481 531 
L 3481 0 
L 794 0 
L 794 531 
z
" transform="scale(0.015625)"/>
       </defs>
       <use xlink:href="#DejaVuSans-31"/>
       <use xlink:href="#DejaVuSans-30" transform="translate(63.623047 0)"/>
       <use xlink:href="#DejaVuSans-30" transform="translate(127.246094 0)"/>
      </g>
     </g>
    </g>
    <g id="xtick_7">
     <g id="line2d_13">
      <path d="M 440.613274 341.944588 
L 440.613274 49.775412 
" clip-path="url(#pe226f9696a)" style="fill: none; stroke: #b0b0b0; stroke-opacity: 0.5; stroke-width: 0.4; stroke-linecap: square"/>
     </g>
     <g id="line2d_14">
      <g>
       <use xlink:href="#mf8ac7f9145" x="440.613274" y="341.944588" style="stroke: #000000; stroke-width: 0.8"/>
      </g>
     </g>
     <g id="text_7">
      <!-- 120 -->
      <g transform="translate(431.069524 356.543025) scale(0.1 -0.1)">
       <use xlink:href="#DejaVuSans-31"/>
       <use xlink:href="#DejaVuSans-32" transform="translate(63.623047 0)"/>
       <use xlink:href="#DejaVuSans-30" transform="translate(127.246094 0)"/>
      </g>
     </g>
    </g>
    <g id="text_8">
     <!-- x (in) -->
     <g transform="translate(242.649125 370.22115) scale(0.1 -0.1)">
      <defs>
       <path id="DejaVuSans-78" d="M 3513 3500 
L 2247 1797 
L 3578 0 
L 2900 0 
L 1881 1375 
L 863 0 
L 184 0 
L 1544 1831 
L 300 3500 
L 978 3500 
L 1906 2253 
L 2834 3500 
L 3513 3500 
z
" transform="scale(0.015625)"/>
       <path id="DejaVuSans-20" transform="scale(0.015625)"/>
       <path id="DejaVuSans-28" d="M 1984 4856 
Q 1566 4138 1362 3434 
Q 1159 2731 1159 2009 
Q 1159 1288 1364 580 
Q 1569 -128 1984 -844 
L 1484 -844 
Q 1016 -109 783 600 
Q 550 1309 550 2009 
Q 550 2706 781 3412 
Q 1013 4119 1484 4856 
L 1984 4856 
z
" transform="scale(0.015625)"/>
       <path id="DejaVuSans-69" d="M 603 3500 
L 1178 3500 
L 1178 0 
L 603 0 
L 603 3500 
z
M 603 4863 
L 1178 4863 
L 1178 4134 
L 603 4134 
L 603 4863 
z
" transform="scale(0.015625)"/>
       <path id="DejaVuSans-6e" d="M 3513 2113 
L 3513 0 
L 2938 0 
L 2938 2094 
Q 2938 2591 2744 2837 
Q 2550 3084 2163 3084 
Q 1697 3084 1428 2787 
Q 1159 2491 1159 1978 
L 1159 0 
L 581 0 
L 581 3500 
L 1159 3500 
L 1159 2956 
Q 1366 3272 1645 3428 
Q 1925 3584 2291 3584 
Q 2894 3584 3203 3211 
Q 3513 2838 3513 2113 
z
" transform="scale(0.015625)"/>
       <path id="DejaVuSans-29" d="M 513 4856 
L 1013 4856 
Q 1481 4119 1714 3412 
Q 1947 2706 1947 2009 
Q 1947 1309 1714 600 
Q 1481 -109 1013 -844 
L 513 -844 
Q 928 -128 1133 580 
Q 1338 1288 1338 2009 
Q 1338 2731 1133 3434 
Q 928 4138 513 4856 
z
" transform="scale(0.015625)"/>
      </defs>
      <use xlink:href="#DejaVuSans-78"/>
      <use xlink:href="#DejaVuSans-20" transform="translate(59.179688 0)"/>
      <use xlink:href="#DejaVuSans-28" transform="translate(90.966797 0)"/>
      <use xlink:href="#DejaVuSans-69" transform="translate(129.980469 0)"/>
      <use xlink:href="#DejaVuSans-6e" transform="translate(157.763672 0)"/>
      <use xlink:href="#DejaVuSans-29" transform="translate(221.142578 0)"/>
     </g>
    </g>
   </g>
   <g id="matplotlib.axis_2">
    <g id="ytick_1">
     <g id="line2d_15">
      <path d="M 48.982813 313.029243 
L 462.331062 313.029243 
" clip-path="url(#pe226f9696a)" style="fill: none; stroke: #b0b0b0; stroke-opacity: 0.5; stroke-width: 0.4; stroke-linecap: square"/>
     </g>
     <g id="line2d_16">
      <defs>
       <path id="m7bcac8844e" d="M 0 0 
L -3.5 0 
" style="stroke: #000000; stroke-width: 0.8"/>
      </defs>
      <g>
       <use xlink:href="#m7bcac8844e" x="48.982813" y="313.029243" style="stroke: #000000; stroke-width: 0.8"/>
      </g>
     </g>
     <g id="text_9">
      <!-- −40 -->
      <g transform="translate(20.878125 316.828462) scale(0.1 -0.1)">
       <defs>
        <path id="DejaVuSans-2212" d="M 678 2272 
L 4684 2272 
L 4684 1741 
L 678 1741 
L 678 2272 
z
" transform="scale(0.015625)"/>
       </defs>
       <use xlink:href="#DejaVuSans-2212"/>
       <use xlink:href="#DejaVuSans-34" transform="translate(83.789062 0)"/>
       <use xlink:href="#DejaVuSans-30" transform="translate(147.412109 0)"/>
      </g>
     </g>
    </g>
    <g id="ytick_2">
     <g id="line2d_17">
      <path d="M 48.982813 254.444622 
L 462.331062 254.444622 
" clip-path="url(#pe226f9696a)" style="fill: none; stroke: #b0b0b0; stroke-opacity: 0.5; stroke-width: 0.4; stroke-linecap: square"/>
     </g>
     <g id="line2d_18">
      <g>
       <use xlink:href="#m7bcac8844e" x="48.982813" y="254.444622" style="stroke: #000000; stroke-width: 0.8"/>
      </g>
     </g>
     <g id="text_10">
      <!-- −20 -->
      <g transform="translate(20.878125 258.24384) scale(0.1 -0.1)">
       <use xlink:href="#DejaVuSans-2212"/>
       <use xlink:href="#DejaVuSans-32" transform="translate(83.789062 0)"/>
       <use xlink:href="#DejaVuSans-30" transform="translate(147.412109 0)"/>
      </g>
     </g>
    </g>
    <g id="ytick_3">
     <g id="line2d_19">
      <path d="M 48.982813 195.86 
L 462.331062 195.86 
" clip-path="url(#pe226f9696a)" style="fill: none; stroke: #b0b0b0; stroke-opacity: 0.5; stroke-width: 0.4; stroke-linecap: square"/>
     </g>
     <g id="line2d_20">
      <g>
       <use xlink:href="#m7bcac8844e" x="48.982813" y="195.86" style="stroke: #000000; stroke-width: 0.8"/>
      </g>
     </g>
     <g id="text_11">
      <!-- 0 -->
      <g transform="translate(35.620312 199.659219) scale(0.1 -0.1)">
       <use xlink:href="#DejaVuSans-30"/>
      </g>
     </g>
    </g>
    <g id="ytick_4">
     <g id="line2d_21">
      <path d="M 48.982813 137.275378 
L 462.331062 137.275378 
" clip-path="url(#pe226f9696a)" style="fill: none; stroke: #b0b0b0; stroke-opacity: 0.5; stroke-width: 0.4; stroke-linecap: square"/>
     </g>
     <g id="line2d_22">
      <g>
       <use xlink:href="#m7bcac8844e" x="48.982813" y="137.275378" style="stroke: #000000; stroke-width: 0.8"/>
      </g>
     </g>
     <g id="text_12">
      <!-- 20 -->
      <g transform="translate(29.257812 141.074597) scale(0.1 -0.1)">
       <use xlink:href="#DejaVuSans-32"/>
       <use xlink:href="#DejaVuSans-30" transform="translate(63.623047 0)"/>
      </g>
     </g>
    </g>
    <g id="ytick_5">
     <g id="line2d_23">
      <path d="M 48.982813 78.690757 
L 462.331062 78.690757 
" clip-path="url(#pe226f9696a)" style="fill: none; stroke: #b0b0b0; stroke-opacity: 0.5; stroke-width: 0.4; stroke-linecap: square"/>
     </g>
     <g id="line2d_24">
      <g>
       <use xlink:href="#m7bcac8844e" x="48.982813" y="78.690757" style="stroke: #000000; stroke-width: 0.8"/>
      </g>
     </g>
     <g id="text_13">
      <!-- 40 -->
      <g transform="translate(29.257812 82.489976) scale(0.1 -0.1)">
       <use xlink:href="#DejaVuSans-34"/>
       <use xlink:href="#DejaVuSans-30" transform="translate(63.623047 0)"/>
      </g>
     </g>
    </g>
    <g id="text_14">
     <!-- y (in) -->
     <g transform="translate(14.798438 208.867812) rotate(-90) scale(0.1 -0.1)">
      <defs>
       <path id="DejaVuSans-79" d="M 2059 -325 
Q 1816 -950 1584 -1140 
Q 1353 -1331 966 -1331 
L 506 -1331 
L 506 -850 
L 844 -850 
Q 1081 -850 1212 -737 
Q 1344 -625 1503 -206 
L 1606 56 
L 191 3500 
L 800 3500 
L 1894 763 
L 2988 3500 
L 3597 3500 
L 2059 -325 
z
" transform="scale(0.015625)"/>
      </defs>
      <use xlink:href="#DejaVuSans-79"/>
      <use xlink:href="#DejaVuSans-20" transform="translate(59.179688 0)"/>
      <use xlink:href="#DejaVuSans-28" transform="translate(90.966797 0)"/>
      <use xlink:href="#DejaVuSans-69" transform="translate(129.980469 0)"/>
      <use xlink:href="#DejaVuSans-6e" transform="translate(157.763672 0)"/>
      <use xlink:href="#DejaVuSans-29" transform="translate(221.142578 0)"/>
     </g>
    </g>
   </g>
   <g id="line2d_25">
    <path d="M 67.771369 165.68892 
L 68.132966 166.642699 
L 68.494562 167.485732 
L 68.856158 168.245791 
L 69.217754 168.940417 
L 69.57935 169.58154 
L 69.940946 170.177716 
L 70.302543 170.735333 
L 70.664139 171.25931 
L 71.025735 171.753534 
L 71.387331 172.221139 
L 71.748927 172.664699 
L 72.110524 173.086353 
L 72.47212 173.48791 
L 72.833716 173.870908 
L 73.195312 174.236673 
L 73.556908 174.586354 
L 73.918505 174.920959 
L 74.280101 175.241372 
L 74.641697 175.548377 
L 75.003293 175.842673 
L 75.364889 176.124882 
L 75.726486 176.395566 
L 76.088082 176.655231 
L 76.449678 176.904334 
L 76.811274 177.14329 
L 77.17287 177.372478 
L 77.534467 177.592244 
L 77.896063 177.802903 
L 78.257659 178.004745 
L 78.619255 178.198036 
L 78.980851 178.383022 
L 79.342447 178.559928 
L 79.704044 178.728963 
L 80.06564 178.890319 
L 80.427236 179.044173 
L 80.788832 179.190691 
L 81.150428 179.330024 
L 81.512025 179.462314 
L 81.873621 179.587691 
L 82.235217 179.706275 
L 82.596813 179.818179 
L 82.958409 179.923504 
L 83.320006 180.022346 
L 83.681602 180.114793 
L 84.043198 180.200924 
L 84.404794 180.280814 
L 84.76639 180.35453 
L 85.127987 180.422134 
L 85.489583 180.48368 
L 85.851179 180.539218 
L 86.212775 180.588795 
L 86.574371 180.632447 
L 86.935968 180.670211 
L 87.297564 180.702116 
L 87.65916 180.728187 
L 88.020756 180.748443 
L 88.382352 180.762901 
L 88.743948 180.771571 
L 89.105545 180.77446 
" clip-path="url(#pe226f9696a)" style="fill: none; stroke: #1f77b4; stroke-width: 1.8; stroke-linecap: square"/>
   </g>
   <g id="line2d_26">
    <path d="M 67.771369 226.03108 
L 68.132966 225.077301 
L 68.494562 224.234268 
L 68.856158 223.474209 
L 69.217754 222.779583 
L 69.57935 222.13846 
L 69.940946 221.542284 
L 70.302543 220.984667 
L 70.664139 220.46069 
L 71.025735 219.966466 
L 71.387331 219.498861 
L 71.748927 219.055301 
L 72.110524 218.633647 
L 72.47212 218.23209 
L 72.833716 217.849092 
L 73.195312 217.483327 
L 73.556908 217.133646 
L 73.918505 216.799041 
L 74.280101 216.478628 
L 74.641697 216.171623 
L 75.003293 215.877327 
L 75.364889 215.595118 
L 75.726486 215.324434 
L 76.088082 215.064769 
L 76.449678 214.815666 
L 76.811274 214.57671 
L 77.17287 214.347522 
L 77.534467 214.127756 
L 77.896063 213.917097 
L 78.257659 213.715255 
L 78.619255 213.521964 
L 78.980851 213.336978 
L 79.342447 213.160072 
L 79.704044 212.991037 
L 80.06564 212.829681 
L 80.427236 212.675827 
L 80.788832 212.529309 
L 81.150428 212.389976 
L 81.512025 212.257686 
L 81.873621 212.132309 
L 82.235217 212.013725 
L 82.596813 211.901821 
L 82.958409 211.796496 
L 83.320006 211.697654 
L 83.681602 211.605207 
L 84.043198 211.519076 
L 84.404794 211.439186 
L 84.76639 211.36547 
L 85.127987 211.297866 
L 85.489583 211.23632 
L 85.851179 211.180782 
L 86.212775 211.131205 
L 86.574371 211.087553 
L 86.935968 211.049789 
L 87.297564 211.017884 
L 87.65916 210.991813 
L 88.020756 210.971557 
L 88.382352 210.957099 
L 88.743948 210.948429 
L 89.105545 210.94554 
" clip-path="url(#pe226f9696a)" style="fill: none; stroke: #1f77b4; stroke-width: 1.8; stroke-linecap: square"/>
   </g>
   <g id="line2d_27">
    <path d="M 89.105545 180.77446 
L 89.192396 180.773805 
L 89.279248 180.771841 
L 89.3661 180.768567 
L 89.452951 180.763979 
L 89.539803 180.758074 
L 89.626655 180.75085 
L 89.713507 180.7423 
L 89.800358 180.732419 
L 89.88721 180.7212 
L 89.974062 180.708635 
L 90.060913 180.694715 
L 90.147765 180.67943 
L 90.234617 180.662769 
L 90.321468 180.64472 
L 90.40832 180.625269 
L 90.495172 180.604401 
L 90.582023 180.582102 
L 90.668875 180.558353 
L 90.755727 180.533136 
L 90.842579 180.506431 
L 90.92943 180.478216 
L 91.016282 180.448467 
L 91.103134 180.417158 
L 91.189985 180.384264 
L 91.276837 180.349754 
L 91.363689 180.313597 
L 91.45054 180.275759 
L 91.537392 180.236203 
L 91.624244 180.19489 
L 91.711096 180.151778 
L 91.797947 180.106821 
L 91.884799 180.05997 
L 91.971651 180.011171 
L 92.058502 179.960367 
L 92.145354 179.907496 
L 92.232206 179.852489 
L 92.319057 179.795273 
L 92.405909 179.735768 
L 92.492761 179.673887 
" clip-path="url(#pe226f9696a)" style="fill: none; stroke: #ff7f0e; stroke-width: 1.8; stroke-linecap: square"/>
   </g>
   <g id="line2d_28">
    <path d="M 89.105545 210.94554 
L 89.192396 210.946195 
L 89.279248 210.948159 
L 89.3661 210.951433 
L 89.452951 210.956021 
L 89.539803 210.961926 
L 89.626655 210.96915 
L 89.713507 210.9777 
L 89.800358 210.987581 
L 89.88721 210.9988 
L 89.974062 211.011365 
L 90.060913 211.025285 
L 90.147765 211.04057 
L 90.234617 211.057231 
L 90.321468 211.07528 
L 90.40832 211.094731 
L 90.495172 211.115599 
L 90.582023 211.137898 
L 90.668875 211.161647 
L 90.755727 211.186864 
L 90.842579 211.213569 
L 90.92943 211.241784 
L 91.016282 211.271533 
L 91.103134 211.302842 
L 91.189985 211.335736 
L 91.276837 211.370246 
L 91.363689 211.406403 
L 91.45054 211.444241 
L 91.537392 211.483797 
L 91.624244 211.52511 
L 91.711096 211.568222 
L 91.797947 211.613179 
L 91.884799 211.66003 
L 91.971651 211.708829 
L 92.058502 211.759633 
L 92.145354 211.812504 
L 92.232206 211.867511 
L 92.319057 211.924727 
L 92.405909 211.984232 
L 92.492761 212.046113 
" clip-path="url(#pe226f9696a)" style="fill: none; stroke: #ff7f0e; stroke-width: 1.8; stroke-linecap: square"/>
   </g>
   <g id="line2d_29">
    <path d="M 92.492761 179.673887 
L 97.505501 176.157764 
L 102.864666 172.641642 
L 109.554869 168.539499 
L 116.716595 164.437357 
L 124.349844 160.335214 
L 132.454617 156.233071 
L 141.030913 152.130928 
L 150.078733 148.028786 
L 160.996474 143.340623 
L 172.530082 138.652459 
L 184.679557 133.964296 
L 197.4449 129.276133 
L 210.82611 124.58797 
L 224.823188 119.899807 
L 241.306054 114.625624 
L 258.568377 109.35144 
L 276.610157 104.077257 
L 295.431394 98.803073 
L 315.032088 93.52889 
L 337.724815 87.668686 
L 361.379835 81.808482 
L 385.997148 75.948278 
L 411.576753 70.088074 
L 438.118651 64.22787 
L 443.542505 63.055829 
L 443.542505 63.055829 
" clip-path="url(#pe226f9696a)" style="fill: none; stroke: #2ca02c; stroke-width: 1.8; stroke-linecap: square"/>
   </g>
   <g id="line2d_30">
    <path d="M 92.492761 212.046113 
L 97.505501 215.562236 
L 102.864666 219.078358 
L 109.554869 223.180501 
L 116.716595 227.282643 
L 124.349844 231.384786 
L 132.454617 235.486929 
L 141.030913 239.589072 
L 150.078733 243.691214 
L 160.996474 248.379377 
L 172.530082 253.067541 
L 184.679557 257.755704 
L 197.4449 262.443867 
L 210.82611 267.13203 
L 224.823188 271.820193 
L 241.306054 277.094376 
L 258.568377 282.36856 
L 276.610157 287.642743 
L 295.431394 292.916927 
L 315.032088 298.19111 
L 337.724815 304.051314 
L 361.379835 309.911518 
L 385.997148 315.771722 
L 411.576753 321.631926 
L 438.118651 327.49213 
L 443.542505 328.664171 
L 443.542505 328.664171 
" clip-path="url(#pe226f9696a)" style="fill: none; stroke: #2ca02c; stroke-width: 1.8; stroke-linecap: square"/>
   </g>
   <g id="line2d_31">
    <path d="M 48.982813 195.86 
L 462.331062 195.86 
" clip-path="url(#pe226f9696a)" style="fill: none; stroke-dasharray: 2.22,0.96; stroke-dashoffset: 0; stroke: #000000; stroke-width: 0.6"/>
   </g>
   <g id="line2d_32">
    <path d="M 89.105545 341.944588 
L 89.105545 49.775412 
" clip-path="url(#pe226f9696a)" style="fill: none; stroke-dasharray: 0.6,0.99; stroke-dashoffset: 0; stroke: #808080; stroke-width: 0.6"/>
   </g>
   <g id="patch_3">
    <path d="M 48.982813 341.944588 
L 48.982813 49.775412 
" style="fill: none; stroke: #000000; stroke-width: 0.8; stroke-linejoin: miter; stroke-linecap: square"/>
   </g>
   <g id="patch_4">
    <path d="M 462.331062 341.944588 
L 462.331062 49.775412 
" style="fill: none; stroke: #000000; stroke-width: 0.8; stroke-linejoin: miter; stroke-linecap: square"/>
   </g>
   <g id="patch_5">
    <path d="M 48.982813 341.944588 
L 462.331062 341.944588 
" style="fill: none; stroke: #000000; stroke-width: 0.8; stroke-linejoin: miter; stroke-linecap: square"/>
   </g>
   <g id="patch_6">
    <path d="M 48.982813 49.775412 
L 462.331062 49.775412 
" style="fill: none; stroke: #000000; stroke-width: 0.8; stroke-linejoin: miter; stroke-linecap: square"/>
   </g>
   <g id="text_15">
    <!-- Rao (Bell) Nozzle  |  $θ_n$ = 36.0°, $θ_e$ = 12.15° -->
    <g transform="translate(124.076937 43.775412) scale(0.12 -0.12)">
     <defs>
      <path id="DejaVuSans-52" d="M 2841 2188 
Q 3044 2119 3236 1894 
Q 3428 1669 3622 1275 
L 4263 0 
L 3584 0 
L 2988 1197 
Q 2756 1666 2539 1819 
Q 2322 1972 1947 1972 
L 1259 1972 
L 1259 0 
L 628 0 
L 628 4666 
L 2053 4666 
Q 2853 4666 3247 4331 
Q 3641 3997 3641 3322 
Q 3641 2881 3436 2590 
Q 3231 2300 2841 2188 
z
M 1259 4147 
L 1259 2491 
L 2053 2491 
Q 2509 2491 2742 2702 
Q 2975 2913 2975 3322 
Q 2975 3731 2742 3939 
Q 2509 4147 2053 4147 
L 1259 4147 
z
" transform="scale(0.015625)"/>
      <path id="DejaVuSans-61" d="M 2194 1759 
Q 1497 1759 1228 1600 
Q 959 1441 959 1056 
Q 959 750 1161 570 
Q 1363 391 1709 391 
Q 2188 391 2477 730 
Q 2766 1069 2766 1631 
L 2766 1759 
L 2194 1759 
z
M 3341 1997 
L 3341 0 
L 2766 0 
L 2766 531 
Q 2569 213 2275 61 
Q 1981 -91 1556 -91 
Q 1019 -91 701 211 
Q 384 513 384 1019 
Q 384 1609 779 1909 
Q 1175 2209 1959 2209 
L 2766 2209 
L 2766 2266 
Q 2766 2663 2505 2880 
Q 2244 3097 1772 3097 
Q 1472 3097 1187 3025 
Q 903 2953 641 2809 
L 641 3341 
Q 956 3463 1253 3523 
Q 1550 3584 1831 3584 
Q 2591 3584 2966 3190 
Q 3341 2797 3341 1997 
z
" transform="scale(0.015625)"/>
      <path id="DejaVuSans-6f" d="M 1959 3097 
Q 1497 3097 1228 2736 
Q 959 2375 959 1747 
Q 959 1119 1226 758 
Q 1494 397 1959 397 
Q 2419 397 2687 759 
Q 2956 1122 2956 1747 
Q 2956 2369 2687 2733 
Q 2419 3097 1959 3097 
z
M 1959 3584 
Q 2709 3584 3137 3096 
Q 3566 2609 3566 1747 
Q 3566 888 3137 398 
Q 2709 -91 1959 -91 
Q 1206 -91 779 398 
Q 353 888 353 1747 
Q 353 2609 779 3096 
Q 1206 3584 1959 3584 
z
" transform="scale(0.015625)"/>
      <path id="DejaVuSans-42" d="M 1259 2228 
L 1259 519 
L 2272 519 
Q 2781 519 3026 730 
Q 3272 941 3272 1375 
Q 3272 1813 3026 2020 
Q 2781 2228 2272 2228 
L 1259 2228 
z
M 1259 4147 
L 1259 2741 
L 2194 2741 
Q 2656 2741 2882 2914 
Q 3109 3088 3109 3444 
Q 3109 3797 2882 3972 
Q 2656 4147 2194 4147 
L 1259 4147 
z
M 628 4666 
L 2241 4666 
Q 2963 4666 3353 4366 
Q 3744 4066 3744 3513 
Q 3744 3084 3544 2831 
Q 3344 2578 2956 2516 
Q 3422 2416 3680 2098 
Q 3938 1781 3938 1306 
Q 3938 681 3513 340 
Q 3088 0 2303 0 
L 628 0 
L 628 4666 
z
" transform="scale(0.015625)"/>
      <path id="DejaVuSans-65" d="M 3597 1894 
L 3597 1613 
L 953 1613 
Q 991 1019 1311 708 
Q 1631 397 2203 397 
Q 2534 397 2845 478 
Q 3156 559 3463 722 
L 3463 178 
Q 3153 47 2828 -22 
Q 2503 -91 2169 -91 
Q 1331 -91 842 396 
Q 353 884 353 1716 
Q 353 2575 817 3079 
Q 1281 3584 2069 3584 
Q 2775 3584 3186 3129 
Q 3597 2675 3597 1894 
z
M 3022 2063 
Q 3016 2534 2758 2815 
Q 2500 3097 2075 3097 
Q 1594 3097 1305 2825 
Q 1016 2553 972 2059 
L 3022 2063 
z
" transform="scale(0.015625)"/>
      <path id="DejaVuSans-6c" d="M 603 4863 
L 1178 4863 
L 1178 0 
L 603 0 
L 603 4863 
z
" transform="scale(0.015625)"/>
      <path id="DejaVuSans-4e" d="M 628 4666 
L 1478 4666 
L 3547 763 
L 3547 4666 
L 4159 4666 
L 4159 0 
L 3309 0 
L 1241 3903 
L 1241 0 
L 628 0 
L 628 4666 
z
" transform="scale(0.015625)"/>
      <path id="DejaVuSans-7a" d="M 353 3500 
L 3084 3500 
L 3084 2975 
L 922 459 
L 3084 459 
L 3084 0 
L 275 0 
L 275 525 
L 2438 3041 
L 353 3041 
L 353 3500 
z
" transform="scale(0.015625)"/>
      <path id="DejaVuSans-7c" d="M 1344 4891 
L 1344 -1509 
L 813 -1509 
L 813 4891 
L 1344 4891 
z
" transform="scale(0.015625)"/>
      <path id="DejaVuSans-Oblique-3b8" d="M 2913 2219 
L 925 2219 
Q 791 1284 928 888 
Q 1100 400 1566 400 
Q 2034 400 2391 891 
Q 2703 1322 2913 2219 
z
M 3009 2750 
Q 3094 3638 2984 3950 
Q 2813 4444 2353 4444 
Q 1875 4444 1525 3956 
Q 1250 3563 1034 2750 
L 3009 2750 
z
M 2444 4913 
Q 3194 4913 3494 4250 
Q 3794 3591 3566 2422 
Q 3341 1256 2781 594 
Q 2225 -72 1475 -72 
Q 722 -72 425 594 
Q 128 1256 353 2422 
Q 581 3591 1134 4250 
Q 1691 4913 2444 4913 
z
" transform="scale(0.015625)"/>
      <path id="DejaVuSans-Oblique-6e" d="M 3566 2113 
L 3156 0 
L 2578 0 
L 2988 2091 
Q 3016 2238 3031 2350 
Q 3047 2463 3047 2528 
Q 3047 2791 2881 2937 
Q 2716 3084 2419 3084 
Q 1956 3084 1622 2776 
Q 1288 2469 1184 1941 
L 800 0 
L 225 0 
L 903 3500 
L 1478 3500 
L 1363 2950 
Q 1603 3253 1940 3418 
Q 2278 3584 2650 3584 
Q 3113 3584 3367 3334 
Q 3622 3084 3622 2631 
Q 3622 2519 3608 2391 
Q 3594 2263 3566 2113 
z
" transform="scale(0.015625)"/>
      <path id="DejaVuSans-3d" d="M 678 2906 
L 4684 2906 
L 4684 2381 
L 678 2381 
L 678 2906 
z
M 678 1631 
L 4684 1631 
L 4684 1100 
L 678 1100 
L 678 1631 
z
" transform="scale(0.015625)"/>
      <path id="DejaVuSans-33" d="M 2597 2516 
Q 3050 2419 3304 2112 
Q 3559 1806 3559 1356 
Q 3559 666 3084 287 
Q 2609 -91 1734 -91 
Q 1441 -91 1130 -33 
Q 819 25 488 141 
L 488 750 
Q 750 597 1062 519 
Q 1375 441 1716 441 
Q 2309 441 2620 675 
Q 2931 909 2931 1356 
Q 2931 1769 2642 2001 
Q 2353 2234 1838 2234 
L 1294 2234 
L 1294 2753 
L 1863 2753 
Q 2328 2753 2575 2939 
Q 2822 3125 2822 3475 
Q 2822 3834 2567 4026 
Q 2313 4219 1838 4219 
Q 1578 4219 1281 4162 
Q 984 4106 628 3988 
L 628 4550 
Q 988 4650 1302 4700 
Q 1616 4750 1894 4750 
Q 2613 4750 3031 4423 
Q 3450 4097 3450 3541 
Q 3450 3153 3228 2886 
Q 3006 2619 2597 2516 
z
" transform="scale(0.015625)"/>
      <path id="DejaVuSans-2e" d="M 684 794 
L 1344 794 
L 1344 0 
L 684 0 
L 684 794 
z
" transform="scale(0.015625)"/>
      <path id="DejaVuSans-b0" d="M 1600 4347 
Q 1350 4347 1178 4173 
Q 1006 4000 1006 3750 
Q 1006 3503 1178 3333 
Q 1350 3163 1600 3163 
Q 1850 3163 2022 3333 
Q 2194 3503 2194 3750 
Q 2194 3997 2020 4172 
Q 1847 4347 1600 4347 
z
M 1600 4750 
Q 1800 4750 1984 4673 
Q 2169 4597 2303 4453 
Q 2447 4313 2519 4134 
Q 2591 3956 2591 3750 
Q 2591 3338 2302 3052 
Q 2013 2766 1594 2766 
Q 1172 2766 890 3047 
Q 609 3328 609 3750 
Q 609 4169 896 4459 
Q 1184 4750 1600 4750 
z
" transform="scale(0.015625)"/>
      <path id="DejaVuSans-2c" d="M 750 794 
L 1409 794 
L 1409 256 
L 897 -744 
L 494 -744 
L 750 256 
L 750 794 
z
" transform="scale(0.015625)"/>
      <path id="DejaVuSans-Oblique-65" d="M 3078 2063 
Q 3088 2113 3092 2166 
Q 3097 2219 3097 2272 
Q 3097 2653 2873 2875 
Q 2650 3097 2266 3097 
Q 1838 3097 1509 2826 
Q 1181 2556 1013 2059 
L 3078 2063 
z
M 3578 1613 
L 903 1613 
Q 884 1494 878 1425 
Q 872 1356 872 1306 
Q 872 872 1139 634 
Q 1406 397 1894 397 
Q 2269 397 2603 481 
Q 2938 566 3225 728 
L 3116 159 
Q 2806 34 2476 -28 
Q 2147 -91 1806 -91 
Q 1078 -91 686 257 
Q 294 606 294 1247 
Q 294 1794 489 2264 
Q 684 2734 1063 3103 
Q 1306 3334 1642 3459 
Q 1978 3584 2356 3584 
Q 2950 3584 3301 3228 
Q 3653 2872 3653 2272 
Q 3653 2128 3634 1964 
Q 3616 1800 3578 1613 
z
" transform="scale(0.015625)"/>
      <path id="DejaVuSans-35" d="M 691 4666 
L 3169 4666 
L 3169 4134 
L 1269 4134 
L 1269 2991 
Q 1406 3038 1543 3061 
Q 1681 3084 1819 3084 
Q 2600 3084 3056 2656 
Q 3513 2228 3513 1497 
Q 3513 744 3044 326 
Q 2575 -91 1722 -91 
Q 1428 -91 1123 -41 
Q 819 9 494 109 
L 494 744 
Q 775 591 1075 516 
Q 1375 441 1709 441 
Q 2250 441 2565 725 
Q 2881 1009 2881 1497 
Q 2881 1984 2565 2268 
Q 2250 2553 1709 2553 
Q 1456 2553 1204 2497 
Q 953 2441 691 2322 
L 691 4666 
z
" transform="scale(0.015625)"/>
     </defs>
     <use xlink:href="#DejaVuSans-52" transform="translate(0 0.234375)"/>
     <use xlink:href="#DejaVuSans-61" transform="translate(69.482422 0.234375)"/>
     <use xlink:href="#DejaVuSans-6f" transform="translate(130.761719 0.234375)"/>
     <use xlink:href="#DejaVuSans-20" transform="translate(191.943359 0.234375)"/>
     <use xlink:href="#DejaVuSans-28" transform="translate(223.730469 0.234375)"/>
     <use xlink:href="#DejaVuSans-42" transform="translate(262.744141 0.234375)"/>
     <use xlink:href="#DejaVuSans-65" transform="translate(331.347656 0.234375)"/>
     <use xlink:href="#DejaVuSans-6c" transform="translate(392.871094 0.234375)"/>
     <use xlink:href="#DejaVuSans-6c" transform="translate(420.654297 0.234375)"/>
     <use xlink:href="#DejaVuSans-29" transform="translate(448.4375 0.234375)"/>
     <use xlink:href="#DejaVuSans-20" transform="translate(487.451172 0.234375)"/>
     <use xlink:href="#DejaVuSans-4e" transform="translate(519.238281 0.234375)"/>
     <use xlink:href="#DejaVuSans-6f" transform="translate(594.042969 0.234375)"/>
     <use xlink:href="#DejaVuSans-7a" transform="translate(655.224609 0.234375)"/>
     <use xlink:href="#DejaVuSans-7a" transform="translate(707.714844 0.234375)"/>
     <use xlink:href="#DejaVuSans-6c" transform="translate(760.205078 0.234375)"/>
     <use xlink:href="#DejaVuSans-65" transform="translate(787.988281 0.234375)"/>
     <use xlink:href="#DejaVuSans-20" transform="translate(849.511719 0.234375)"/>
     <use xlink:href="#DejaVuSans-20" transform="translate(881.298828 0.234375)"/>
     <use xlink:href="#DejaVuSans-7c" transform="translate(913.085938 0.234375)"/>
     <use xlink:href="#DejaVuSans-20" transform="translate(946.777344 0.234375)"/>
     <use xlink:href="#DejaVuSans-20" transform="translate(978.564453 0.234375)"/>
     <use xlink:href="#DejaVuSans-Oblique-3b8" transform="translate(1010.351562 0.234375)"/>
     <use xlink:href="#DejaVuSans-Oblique-6e" transform="translate(1071.533203 -16.171875) scale(0.7)"/>
     <use xlink:href="#DejaVuSans-20" transform="translate(1118.632812 0.234375)"/>
     <use xlink:href="#DejaVuSans-3d" transform="translate(1150.419922 0.234375)"/>
     <use xlink:href="#DejaVuSans-20" transform="translate(1234.208984 0.234375)"/>
     <use xlink:href="#DejaVuSans-33" transform="translate(1265.996094 0.234375)"/>
     <use xlink:href="#DejaVuSans-36" transform="translate(1329.619141 0.234375)"/>
     <use xlink:href="#DejaVuSans-2e" transform="translate(1393.242188 0.234375)"/>
     <use xlink:href="#DejaVuSans-30" transform="translate(1425.029297 0.234375)"/>
     <use xlink:href="#DejaVuSans-b0" transform="translate(1488.652344 0.234375)"/>
     <use xlink:href="#DejaVuSans-2c" transform="translate(1538.652344 0.234375)"/>
     <use xlink:href="#DejaVuSans-20" transform="translate(1570.439453 0.234375)"/>
     <use xlink:href="#DejaVuSans-Oblique-3b8" transform="translate(1602.226562 0.234375)"/>
     <use xlink:href="#DejaVuSans-Oblique-65" transform="translate(1663.408203 -16.171875) scale(0.7)"/>
     <use xlink:href="#DejaVuSans-20" transform="translate(1709.208984 0.234375)"/>
     <use xlink:href="#DejaVuSans-3d" transform="translate(1740.996094 0.234375)"/>
     <use xlink:href="#DejaVuSans-20" transform="translate(1824.785156 0.234375)"/>
     <use xlink:href="#DejaVuSans-31" transform="translate(1856.572266 0.234375)"/>
     <use xlink:href="#DejaVuSans-32" transform="translate(1920.195312 0.234375)"/>
     <use xlink:href="#DejaVuSans-2e" transform="translate(1983.818359 0.234375)"/>
     <use xlink:href="#DejaVuSans-31" transform="translate(2015.605469 0.234375)"/>
     <use xlink:href="#DejaVuSans-35" transform="translate(2079.228516 0.234375)"/>
     <use xlink:href="#DejaVuSans-b0" transform="translate(2142.851562 0.234375)"/>
    </g>
   </g>
   <g id="legend_1">
    <g id="patch_7">
     <path d="M 224.023187 337.944588 
L 287.290687 337.944588 
Q 288.890687 337.944588 288.890687 336.344588 
L 288.890687 301.917088 
Q 288.890687 300.317088 287.290687 300.317088 
L 224.023187 300.317088 
Q 222.423187 300.317088 222.423187 301.917088 
L 222.423187 336.344588 
Q 222.423187 337.944588 224.023187 337.944588 
z
" style="fill: #ffffff; opacity: 0.8; stroke: #cccccc; stroke-linejoin: miter"/>
    </g>
    <g id="line2d_33">
     <path d="M 225.623187 306.795838 
L 233.623187 306.795838 
L 241.623187 306.795838 
" style="fill: none; stroke: #1f77b4; stroke-width: 1.8; stroke-linecap: square"/>
    </g>
    <g id="text_16">
     <!-- Inner arc -->
     <g transform="translate(248.023187 309.595838) scale(0.08 -0.08)">
      <defs>
       <path id="DejaVuSans-49" d="M 628 4666 
L 1259 4666 
L 1259 0 
L 628 0 
L 628 4666 
z
" transform="scale(0.015625)"/>
       <path id="DejaVuSans-72" d="M 2631 2963 
Q 2534 3019 2420 3045 
Q 2306 3072 2169 3072 
Q 1681 3072 1420 2755 
Q 1159 2438 1159 1844 
L 1159 0 
L 581 0 
L 581 3500 
L 1159 3500 
L 1159 2956 
Q 1341 3275 1631 3429 
Q 1922 3584 2338 3584 
Q 2397 3584 2469 3576 
Q 2541 3569 2628 3553 
L 2631 2963 
z
" transform="scale(0.015625)"/>
       <path id="DejaVuSans-63" d="M 3122 3366 
L 3122 2828 
Q 2878 2963 2633 3030 
Q 2388 3097 2138 3097 
Q 1578 3097 1268 2742 
Q 959 2388 959 1747 
Q 959 1106 1268 751 
Q 1578 397 2138 397 
Q 2388 397 2633 464 
Q 2878 531 3122 666 
L 3122 134 
Q 2881 22 2623 -34 
Q 2366 -91 2075 -91 
Q 1284 -91 818 406 
Q 353 903 353 1747 
Q 353 2603 823 3093 
Q 1294 3584 2113 3584 
Q 2378 3584 2631 3529 
Q 2884 3475 3122 3366 
z
" transform="scale(0.015625)"/>
      </defs>
      <use xlink:href="#DejaVuSans-49"/>
      <use xlink:href="#DejaVuSans-6e" transform="translate(29.492188 0)"/>
      <use xlink:href="#DejaVuSans-6e" transform="translate(92.871094 0)"/>
      <use xlink:href="#DejaVuSans-65" transform="translate(156.25 0)"/>
      <use xlink:href="#DejaVuSans-72" transform="translate(217.773438 0)"/>
      <use xlink:href="#DejaVuSans-20" transform="translate(258.886719 0)"/>
      <use xlink:href="#DejaVuSans-61" transform="translate(290.673828 0)"/>
      <use xlink:href="#DejaVuSans-72" transform="translate(351.953125 0)"/>
      <use xlink:href="#DejaVuSans-63" transform="translate(390.816406 0)"/>
     </g>
    </g>
    <g id="line2d_34">
     <path d="M 225.623187 318.538338 
L 233.623187 318.538338 
L 241.623187 318.538338 
" style="fill: none; stroke: #ff7f0e; stroke-width: 1.8; stroke-linecap: square"/>
    </g>
    <g id="text_17">
     <!-- Outer arc -->
     <g transform="translate(248.023187 321.338338) scale(0.08 -0.08)">
      <defs>
       <path id="DejaVuSans-4f" d="M 2522 4238 
Q 1834 4238 1429 3725 
Q 1025 3213 1025 2328 
Q 1025 1447 1429 934 
Q 1834 422 2522 422 
Q 3209 422 3611 934 
Q 4013 1447 4013 2328 
Q 4013 3213 3611 3725 
Q 3209 4238 2522 4238 
z
M 2522 4750 
Q 3503 4750 4090 4092 
Q 4678 3434 4678 2328 
Q 4678 1225 4090 567 
Q 3503 -91 2522 -91 
Q 1538 -91 948 565 
Q 359 1222 359 2328 
Q 359 3434 948 4092 
Q 1538 4750 2522 4750 
z
" transform="scale(0.015625)"/>
       <path id="DejaVuSans-75" d="M 544 1381 
L 544 3500 
L 1119 3500 
L 1119 1403 
Q 1119 906 1312 657 
Q 1506 409 1894 409 
Q 2359 409 2629 706 
Q 2900 1003 2900 1516 
L 2900 3500 
L 3475 3500 
L 3475 0 
L 2900 0 
L 2900 538 
Q 2691 219 2414 64 
Q 2138 -91 1772 -91 
Q 1169 -91 856 284 
Q 544 659 544 1381 
z
M 1991 3584 
L 1991 3584 
z
" transform="scale(0.015625)"/>
       <path id="DejaVuSans-74" d="M 1172 4494 
L 1172 3500 
L 2356 3500 
L 2356 3053 
L 1172 3053 
L 1172 1153 
Q 1172 725 1289 603 
Q 1406 481 1766 481 
L 2356 481 
L 2356 0 
L 1766 0 
Q 1100 0 847 248 
Q 594 497 594 1153 
L 594 3053 
L 172 3053 
L 172 3500 
L 594 3500 
L 594 4494 
L 1172 4494 
z
" transform="scale(0.015625)"/>
      </defs>
      <use xlink:href="#DejaVuSans-4f"/>
      <use xlink:href="#DejaVuSans-75" transform="translate(78.710938 0)"/>
      <use xlink:href="#DejaVuSans-74" transform="translate(142.089844 0)"/>
      <use xlink:href="#DejaVuSans-65" transform="translate(181.298828 0)"/>
      <use xlink:href="#DejaVuSans-72" transform="translate(242.822266 0)"/>
      <use xlink:href="#DejaVuSans-20" transform="translate(283.935547 0)"/>
      <use xlink:href="#DejaVuSans-61" transform="translate(315.722656 0)"/>
      <use xlink:href="#DejaVuSans-72" transform="translate(377.001953 0)"/>
      <use xlink:href="#DejaVuSans-63" transform="translate(415.865234 0)"/>
     </g>
    </g>
    <g id="line2d_35">
     <path d="M 225.623187 330.280838 
L 233.623187 330.280838 
L 241.623187 330.280838 
" style="fill: none; stroke: #2ca02c; stroke-width: 1.8; stroke-linecap: square"/>
    </g>
    <g id="text_18">
     <!-- Parabola -->
     <g transform="translate(248.023187 333.080838) scale(0.08 -0.08)">
      <defs>
       <path id="DejaVuSans-50" d="M 1259 4147 
L 1259 2394 
L 2053 2394 
Q 2494 2394 2734 2622 
Q 2975 2850 2975 3272 
Q 2975 3691 2734 3919 
Q 2494 4147 2053 4147 
L 1259 4147 
z
M 628 4666 
L 2053 4666 
Q 2838 4666 3239 4311 
Q 3641 3956 3641 3272 
Q 3641 2581 3239 2228 
Q 2838 1875 2053 1875 
L 1259 1875 
L 1259 0 
L 628 0 
L 628 4666 
z
" transform="scale(0.015625)"/>
       <path id="DejaVuSans-62" d="M 3116 1747 
Q 3116 2381 2855 2742 
Q 2594 3103 2138 3103 
Q 1681 3103 1420 2742 
Q 1159 2381 1159 1747 
Q 1159 1113 1420 752 
Q 1681 391 2138 391 
Q 2594 391 2855 752 
Q 3116 1113 3116 1747 
z
M 1159 2969 
Q 1341 3281 1617 3432 
Q 1894 3584 2278 3584 
Q 2916 3584 3314 3078 
Q 3713 2572 3713 1747 
Q 3713 922 3314 415 
Q 2916 -91 2278 -91 
Q 1894 -91 1617 61 
Q 1341 213 1159 525 
L 1159 0 
L 581 0 
L 581 4863 
L 1159 4863 
L 1159 2969 
z
" transform="scale(0.015625)"/>
      </defs>
      <use xlink:href="#DejaVuSans-50"/>
      <use xlink:href="#DejaVuSans-61" transform="translate(55.802734 0)"/>
      <use xlink:href="#DejaVuSans-72" transform="translate(117.082031 0)"/>
      <use xlink:href="#DejaVuSans-61" transform="translate(158.195312 0)"/>
      <use xlink:href="#DejaVuSans-62" transform="translate(219.474609 0)"/>
      <use xlink:href="#DejaVuSans-6f" transform="translate(282.951172 0)"/>
      <use xlink:href="#DejaVuSans-6c" transform="translate(344.132812 0)"/>
      <use xlink:href="#DejaVuSans-61" transform="translate(371.916016 0)"/>
     </g>
    </g>
   </g>
  </g>
  <g id="axes_2">
   <g id="patch_8">
    <path d="M 531.381937 323.538372 
L 977.131937 323.538372 
L 977.131937 68.181628 
L 531.381937 68.181628 
z
" style="fill: #ffffff"/>
   </g>
   <g id="matplotlib.axis_3">
    <g id="xtick_8">
     <g id="line2d_36">
      <path d="M 570.289435 323.538372 
L 570.289435 68.181628 
" clip-path="url(#p9189e13c7c)" style="fill: none; stroke: #b0b0b0; stroke-opacity: 0.5; stroke-width: 0.4; stroke-linecap: square"/>
     </g>
     <g id="line2d_37">
      <g>
       <use xlink:href="#mf8ac7f9145" x="570.289435" y="323.538372" style="stroke: #000000; stroke-width: 0.8"/>
      </g>
     </g>
     <g id="text_19">
      <!-- 0 -->
      <g transform="translate(567.108185 338.136809) scale(0.1 -0.1)">
       <use xlink:href="#DejaVuSans-30"/>
      </g>
     </g>
    </g>
    <g id="xtick_9">
     <g id="line2d_38">
      <path d="M 621.492572 323.538372 
L 621.492572 68.181628 
" clip-path="url(#p9189e13c7c)" style="fill: none; stroke: #b0b0b0; stroke-opacity: 0.5; stroke-width: 0.4; stroke-linecap: square"/>
     </g>
     <g id="line2d_39">
      <g>
       <use xlink:href="#mf8ac7f9145" x="621.492572" y="323.538372" style="stroke: #000000; stroke-width: 0.8"/>
      </g>
     </g>
     <g id="text_20">
      <!-- 20 -->
      <g transform="translate(615.130072 338.136809) scale(0.1 -0.1)">
       <use xlink:href="#DejaVuSans-32"/>
       <use xlink:href="#DejaVuSans-30" transform="translate(63.623047 0)"/>
      </g>
     </g>
    </g>
    <g id="xtick_10">
     <g id="line2d_40">
      <path d="M 672.695708 323.538372 
L 672.695708 68.181628 
" clip-path="url(#p9189e13c7c)" style="fill: none; stroke: #b0b0b0; stroke-opacity: 0.5; stroke-width: 0.4; stroke-linecap: square"/>
     </g>
     <g id="line2d_41">
      <g>
       <use xlink:href="#mf8ac7f9145" x="672.695708" y="323.538372" style="stroke: #000000; stroke-width: 0.8"/>
      </g>
     </g>
     <g id="text_21">
      <!-- 40 -->
      <g transform="translate(666.333208 338.136809) scale(0.1 -0.1)">
       <use xlink:href="#DejaVuSans-34"/>
       <use xlink:href="#DejaVuSans-30" transform="translate(63.623047 0)"/>
      </g>
     </g>
    </g>
    <g id="xtick_11">
     <g id="line2d_42">
      <path d="M 723.898845 323.538372 
L 723.898845 68.181628 
" clip-path="url(#p9189e13c7c)" style="fill: none; stroke: #b0b0b0; stroke-opacity: 0.5; stroke-width: 0.4; stroke-linecap: square"/>
     </g>
     <g id="line2d_43">
      <g>
       <use xlink:href="#mf8ac7f9145" x="723.898845" y="323.538372" style="stroke: #000000; stroke-width: 0.8"/>
      </g>
     </g>
     <g id="text_22">
      <!-- 60 -->
      <g transform="translate(717.536345 338.136809) scale(0.1 -0.1)">
       <use xlink:href="#DejaVuSans-36"/>
       <use xlink:href="#DejaVuSans-30" transform="translate(63.623047 0)"/>
      </g>
     </g>
    </g>
    <g id="xtick_12">
     <g id="line2d_44">
      <path d="M 775.101982 323.538372 
L 775.101982 68.181628 
" clip-path="url(#p9189e13c7c)" style="fill: none; stroke: #b0b0b0; stroke-opacity: 0.5; stroke-width: 0.4; stroke-linecap: square"/>
     </g>
     <g id="line2d_45">
      <g>
       <use xlink:href="#mf8ac7f9145" x="775.101982" y="323.538372" style="stroke: #000000; stroke-width: 0.8"/>
      </g>
     </g>
     <g id="text_23">
      <!-- 80 -->
      <g transform="translate(768.739482 338.136809) scale(0.1 -0.1)">
       <use xlink:href="#DejaVuSans-38"/>
       <use xlink:href="#DejaVuSans-30" transform="translate(63.623047 0)"/>
      </g>
     </g>
    </g>
    <g id="xtick_13">
     <g id="line2d_46">
      <path d="M 826.305118 323.538372 
L 826.305118 68.181628 
" clip-path="url(#p9189e13c7c)" style="fill: none; stroke: #b0b0b0; stroke-opacity: 0.5; stroke-width: 0.4; stroke-linecap: square"/>
     </g>
     <g id="line2d_47">
      <g>
       <use xlink:href="#mf8ac7f9145" x="826.305118" y="323.538372" style="stroke: #000000; stroke-width: 0.8"/>
      </g>
     </g>
     <g id="text_24">
      <!-- 100 -->
      <g transform="translate(816.761368 338.136809) scale(0.1 -0.1)">
       <use xlink:href="#DejaVuSans-31"/>
       <use xlink:href="#DejaVuSans-30" transform="translate(63.623047 0)"/>
       <use xlink:href="#DejaVuSans-30" transform="translate(127.246094 0)"/>
      </g>
     </g>
    </g>
    <g id="xtick_14">
     <g id="line2d_48">
      <path d="M 877.508255 323.538372 
L 877.508255 68.181628 
" clip-path="url(#p9189e13c7c)" style="fill: none; stroke: #b0b0b0; stroke-opacity: 0.5; stroke-width: 0.4; stroke-linecap: square"/>
     </g>
     <g id="line2d_49">
      <g>
       <use xlink:href="#mf8ac7f9145" x="877.508255" y="323.538372" style="stroke: #000000; stroke-width: 0.8"/>
      </g>
     </g>
     <g id="text_25">
      <!-- 120 -->
      <g transform="translate(867.964505 338.136809) scale(0.1 -0.1)">
       <use xlink:href="#DejaVuSans-31"/>
       <use xlink:href="#DejaVuSans-32" transform="translate(63.623047 0)"/>
       <use xlink:href="#DejaVuSans-30" transform="translate(127.246094 0)"/>
      </g>
     </g>
    </g>
    <g id="xtick_15">
     <g id="line2d_50">
      <path d="M 928.711392 323.538372 
L 928.711392 68.181628 
" clip-path="url(#p9189e13c7c)" style="fill: none; stroke: #b0b0b0; stroke-opacity: 0.5; stroke-width: 0.4; stroke-linecap: square"/>
     </g>
     <g id="line2d_51">
      <g>
       <use xlink:href="#mf8ac7f9145" x="928.711392" y="323.538372" style="stroke: #000000; stroke-width: 0.8"/>
      </g>
     </g>
     <g id="text_26">
      <!-- 140 -->
      <g transform="translate(919.167642 338.136809) scale(0.1 -0.1)">
       <use xlink:href="#DejaVuSans-31"/>
       <use xlink:href="#DejaVuSans-34" transform="translate(63.623047 0)"/>
       <use xlink:href="#DejaVuSans-30" transform="translate(127.246094 0)"/>
      </g>
     </g>
    </g>
    <g id="text_27">
     <!-- x (in) -->
     <g transform="translate(741.249125 351.814934) scale(0.1 -0.1)">
      <use xlink:href="#DejaVuSans-78"/>
      <use xlink:href="#DejaVuSans-20" transform="translate(59.179688 0)"/>
      <use xlink:href="#DejaVuSans-28" transform="translate(90.966797 0)"/>
      <use xlink:href="#DejaVuSans-69" transform="translate(129.980469 0)"/>
      <use xlink:href="#DejaVuSans-6e" transform="translate(157.763672 0)"/>
      <use xlink:href="#DejaVuSans-29" transform="translate(221.142578 0)"/>
     </g>
    </g>
   </g>
   <g id="matplotlib.axis_4">
    <g id="ytick_6">
     <g id="line2d_52">
      <path d="M 531.381937 298.266273 
L 977.131937 298.266273 
" clip-path="url(#p9189e13c7c)" style="fill: none; stroke: #b0b0b0; stroke-opacity: 0.5; stroke-width: 0.4; stroke-linecap: square"/>
     </g>
     <g id="line2d_53">
      <g>
       <use xlink:href="#m7bcac8844e" x="531.381937" y="298.266273" style="stroke: #000000; stroke-width: 0.8"/>
      </g>
     </g>
     <g id="text_28">
      <!-- −40 -->
      <g transform="translate(503.27725 302.065492) scale(0.1 -0.1)">
       <use xlink:href="#DejaVuSans-2212"/>
       <use xlink:href="#DejaVuSans-34" transform="translate(83.789062 0)"/>
       <use xlink:href="#DejaVuSans-30" transform="translate(147.412109 0)"/>
      </g>
     </g>
    </g>
    <g id="ytick_7">
     <g id="line2d_54">
      <path d="M 531.381937 247.063137 
L 977.131937 247.063137 
" clip-path="url(#p9189e13c7c)" style="fill: none; stroke: #b0b0b0; stroke-opacity: 0.5; stroke-width: 0.4; stroke-linecap: square"/>
     </g>
     <g id="line2d_55">
      <g>
       <use xlink:href="#m7bcac8844e" x="531.381937" y="247.063137" style="stroke: #000000; stroke-width: 0.8"/>
      </g>
     </g>
     <g id="text_29">
      <!-- −20 -->
      <g transform="translate(503.27725 250.862355) scale(0.1 -0.1)">
       <use xlink:href="#DejaVuSans-2212"/>
       <use xlink:href="#DejaVuSans-32" transform="translate(83.789062 0)"/>
       <use xlink:href="#DejaVuSans-30" transform="translate(147.412109 0)"/>
      </g>
     </g>
    </g>
    <g id="ytick_8">
     <g id="line2d_56">
      <path d="M 531.381937 195.86 
L 977.131937 195.86 
" clip-path="url(#p9189e13c7c)" style="fill: none; stroke: #b0b0b0; stroke-opacity: 0.5; stroke-width: 0.4; stroke-linecap: square"/>
     </g>
     <g id="line2d_57">
      <g>
       <use xlink:href="#m7bcac8844e" x="531.381937" y="195.86" style="stroke: #000000; stroke-width: 0.8"/>
      </g>
     </g>
     <g id="text_30">
      <!-- 0 -->
      <g transform="translate(518.019437 199.659219) scale(0.1 -0.1)">
       <use xlink:href="#DejaVuSans-30"/>
      </g>
     </g>
    </g>
    <g id="ytick_9">
     <g id="line2d_58">
      <path d="M 531.381937 144.656863 
L 977.131937 144.656863 
" clip-path="url(#p9189e13c7c)" style="fill: none; stroke: #b0b0b0; stroke-opacity: 0.5; stroke-width: 0.4; stroke-linecap: square"/>
     </g>
     <g id="line2d_59">
      <g>
       <use xlink:href="#m7bcac8844e" x="531.381937" y="144.656863" style="stroke: #000000; stroke-width: 0.8"/>
      </g>
     </g>
     <g id="text_31">
      <!-- 20 -->
      <g transform="translate(511.656937 148.456082) scale(0.1 -0.1)">
       <use xlink:href="#DejaVuSans-32"/>
       <use xlink:href="#DejaVuSans-30" transform="translate(63.623047 0)"/>
      </g>
     </g>
    </g>
    <g id="ytick_10">
     <g id="line2d_60">
      <path d="M 531.381937 93.453727 
L 977.131937 93.453727 
" clip-path="url(#p9189e13c7c)" style="fill: none; stroke: #b0b0b0; stroke-opacity: 0.5; stroke-width: 0.4; stroke-linecap: square"/>
     </g>
     <g id="line2d_61">
      <g>
       <use xlink:href="#m7bcac8844e" x="531.381937" y="93.453727" style="stroke: #000000; stroke-width: 0.8"/>
      </g>
     </g>
     <g id="text_32">
      <!-- 40 -->
      <g transform="translate(511.656937 97.252945) scale(0.1 -0.1)">
       <use xlink:href="#DejaVuSans-34"/>
       <use xlink:href="#DejaVuSans-30" transform="translate(63.623047 0)"/>
      </g>
     </g>
    </g>
    <g id="text_33">
     <!-- y (in) -->
     <g transform="translate(497.197562 208.867812) rotate(-90) scale(0.1 -0.1)">
      <use xlink:href="#DejaVuSans-79"/>
      <use xlink:href="#DejaVuSans-20" transform="translate(59.179688 0)"/>
      <use xlink:href="#DejaVuSans-28" transform="translate(90.966797 0)"/>
      <use xlink:href="#DejaVuSans-69" transform="translate(129.980469 0)"/>
      <use xlink:href="#DejaVuSans-6e" transform="translate(157.763672 0)"/>
      <use xlink:href="#DejaVuSans-29" transform="translate(221.142578 0)"/>
     </g>
    </g>
   </g>
   <g id="line2d_62">
    <path d="M 551.643301 169.490385 
L 552.046095 170.534646 
L 552.448889 171.433379 
L 552.851683 172.228732 
L 553.254477 172.945285 
L 553.657272 173.59888 
L 554.060066 174.200444 
L 554.46286 174.757897 
L 554.865654 175.2772 
L 555.268448 175.762974 
L 555.671242 176.218887 
L 556.074036 176.647909 
L 556.47683 177.052487 
L 556.879625 177.434661 
L 557.282419 177.796156 
L 557.685213 178.138443 
L 558.088007 178.462789 
L 558.490801 178.770294 
L 558.893595 179.06192 
L 559.296389 179.338511 
L 559.699183 179.600815 
L 560.101977 179.849494 
L 560.504772 180.085141 
L 560.907566 180.308283 
L 561.31036 180.519397 
L 561.713154 180.71891 
L 562.115948 180.907206 
L 562.518742 181.084636 
L 562.921536 181.251514 
L 563.32433 181.408124 
L 563.727125 181.554727 
L 564.129919 181.691556 
L 564.532713 181.818822 
L 564.935507 181.936719 
L 565.338301 182.045418 
L 565.741095 182.145077 
L 566.143889 182.235833 
L 566.546683 182.317814 
L 566.949477 182.391128 
L 567.352272 182.455873 
L 567.755066 182.512136 
L 568.15786 182.559987 
L 568.560654 182.599489 
L 568.963448 182.630691 
L 569.366242 182.653633 
L 569.769036 182.668344 
L 570.17183 182.674843 
L 570.574624 182.673136 
L 570.977419 182.663222 
L 571.380213 182.645089 
L 571.783007 182.618715 
L 572.185801 182.584064 
L 572.588595 182.541096 
L 572.991389 182.489753 
L 573.394183 182.429971 
L 573.796977 182.361671 
L 574.199772 182.284764 
L 574.602566 182.199147 
L 575.00536 182.104702 
L 575.408154 182.0013 
" clip-path="url(#p9189e13c7c)" style="fill: none; stroke: #1f77b4; stroke-width: 1.8; stroke-linecap: square"/>
   </g>
   <g id="line2d_63">
    <path d="M 551.643301 222.229615 
L 552.046095 221.185354 
L 552.448889 220.286621 
L 552.851683 219.491268 
L 553.254477 218.774715 
L 553.657272 218.12112 
L 554.060066 217.519556 
L 554.46286 216.962103 
L 554.865654 216.4428 
L 555.268448 215.957026 
L 555.671242 215.501113 
L 556.074036 215.072091 
L 556.47683 214.667513 
L 556.879625 214.285339 
L 557.282419 213.923844 
L 557.685213 213.581557 
L 558.088007 213.257211 
L 558.490801 212.949706 
L 558.893595 212.65808 
L 559.296389 212.381489 
L 559.699183 212.119185 
L 560.101977 211.870506 
L 560.504772 211.634859 
L 560.907566 211.411717 
L 561.31036 211.200603 
L 561.713154 211.00109 
L 562.115948 210.812794 
L 562.518742 210.635364 
L 562.921536 210.468486 
L 563.32433 210.311876 
L 563.727125 210.165273 
L 564.129919 210.028444 
L 564.532713 209.901178 
L 564.935507 209.783281 
L 565.338301 209.674582 
L 565.741095 209.574923 
L 566.143889 209.484167 
L 566.546683 209.402186 
L 566.949477 209.328872 
L 567.352272 209.264127 
L 567.755066 209.207864 
L 568.15786 209.160013 
L 568.560654 209.120511 
L 568.963448 209.089309 
L 569.366242 209.066367 
L 569.769036 209.051656 
L 570.17183 209.045157 
L 570.574624 209.046864 
L 570.977419 209.056778 
L 571.380213 209.074911 
L 571.783007 209.101285 
L 572.185801 209.135936 
L 572.588595 209.178904 
L 572.991389 209.230247 
L 573.394183 209.290029 
L 573.796977 209.358329 
L 574.199772 209.435236 
L 574.602566 209.520853 
L 575.00536 209.615298 
L 575.408154 209.7187 
" clip-path="url(#p9189e13c7c)" style="fill: none; stroke: #1f77b4; stroke-width: 1.8; stroke-linecap: square"/>
   </g>
   <g id="line2d_64">
    <path d="M 575.408154 182.0013 
L 956.870574 79.788753 
L 956.870574 79.788753 
" clip-path="url(#p9189e13c7c)" style="fill: none; stroke: #ff7f0e; stroke-width: 1.8; stroke-linecap: square"/>
   </g>
   <g id="line2d_65">
    <path d="M 575.408154 209.7187 
L 956.870574 311.931247 
L 956.870574 311.931247 
" clip-path="url(#p9189e13c7c)" style="fill: none; stroke: #ff7f0e; stroke-width: 1.8; stroke-linecap: square"/>
   </g>
   <g id="line2d_66">
    <path d="M 531.381937 195.86 
L 977.131937 195.86 
" clip-path="url(#p9189e13c7c)" style="fill: none; stroke-dasharray: 2.22,0.96; stroke-dashoffset: 0; stroke: #000000; stroke-width: 0.6"/>
   </g>
   <g id="line2d_67">
    <path d="M 570.289435 323.538372 
L 570.289435 68.181628 
" clip-path="url(#p9189e13c7c)" style="fill: none; stroke-dasharray: 0.6,0.99; stroke-dashoffset: 0; stroke: #808080; stroke-width: 0.6"/>
   </g>
   <g id="patch_9">
    <path d="M 531.381937 323.538372 
L 531.381937 68.181628 
" style="fill: none; stroke: #000000; stroke-width: 0.8; stroke-linejoin: miter; stroke-linecap: square"/>
   </g>
   <g id="patch_10">
    <path d="M 977.131937 323.538372 
L 977.131937 68.181628 
" style="fill: none; stroke: #000000; stroke-width: 0.8; stroke-linejoin: miter; stroke-linecap: square"/>
   </g>
   <g id="patch_11">
    <path d="M 531.381937 323.538372 
L 977.131937 323.538372 
" style="fill: none; stroke: #000000; stroke-width: 0.8; stroke-linejoin: miter; stroke-linecap: square"/>
   </g>
   <g id="patch_12">
    <path d="M 531.381937 68.181628 
L 977.131937 68.181628 
" style="fill: none; stroke: #000000; stroke-width: 0.8; stroke-linejoin: miter; stroke-linecap: square"/>
   </g>
   <g id="text_34">
    <!-- Conical Nozzle  |  $θ_{cone}$ = 15.0°,  $L_{cone}$ = 150.0 in -->
    <g transform="translate(608.996937 62.181628) scale(0.12 -0.12)">
     <defs>
      <path id="DejaVuSans-43" d="M 4122 4306 
L 4122 3641 
Q 3803 3938 3442 4084 
Q 3081 4231 2675 4231 
Q 1875 4231 1450 3742 
Q 1025 3253 1025 2328 
Q 1025 1406 1450 917 
Q 1875 428 2675 428 
Q 3081 428 3442 575 
Q 3803 722 4122 1019 
L 4122 359 
Q 3791 134 3420 21 
Q 3050 -91 2638 -91 
Q 1578 -91 968 557 
Q 359 1206 359 2328 
Q 359 3453 968 4101 
Q 1578 4750 2638 4750 
Q 3056 4750 3426 4639 
Q 3797 4528 4122 4306 
z
" transform="scale(0.015625)"/>
      <path id="DejaVuSans-Oblique-63" d="M 3431 3366 
L 3316 2797 
Q 3109 2947 2876 3022 
Q 2644 3097 2394 3097 
Q 2119 3097 1870 3000 
Q 1622 2903 1453 2725 
Q 1184 2453 1037 2087 
Q 891 1722 891 1331 
Q 891 859 1127 628 
Q 1363 397 1844 397 
Q 2081 397 2348 469 
Q 2616 541 2906 684 
L 2797 116 
Q 2547 13 2283 -39 
Q 2019 -91 1741 -91 
Q 1044 -91 669 257 
Q 294 606 294 1253 
Q 294 1797 489 2255 
Q 684 2713 1069 3078 
Q 1331 3328 1684 3456 
Q 2038 3584 2456 3584 
Q 2700 3584 2940 3529 
Q 3181 3475 3431 3366 
z
" transform="scale(0.015625)"/>
      <path id="DejaVuSans-Oblique-6f" d="M 1625 -91 
Q 1009 -91 651 289 
Q 294 669 294 1325 
Q 294 1706 417 2101 
Q 541 2497 738 2766 
Q 1047 3184 1428 3384 
Q 1809 3584 2291 3584 
Q 2888 3584 3255 3212 
Q 3622 2841 3622 2241 
Q 3622 1825 3500 1412 
Q 3378 1000 3181 728 
Q 2875 309 2494 109 
Q 2113 -91 1625 -91 
z
M 891 1344 
Q 891 869 1089 633 
Q 1288 397 1691 397 
Q 2269 397 2648 901 
Q 3028 1406 3028 2181 
Q 3028 2634 2825 2865 
Q 2622 3097 2228 3097 
Q 1903 3097 1650 2945 
Q 1397 2794 1197 2484 
Q 1050 2253 970 1956 
Q 891 1659 891 1344 
z
" transform="scale(0.015625)"/>
      <path id="DejaVuSans-Oblique-4c" d="M 1075 4666 
L 1709 4666 
L 909 525 
L 3181 525 
L 3078 0 
L 172 0 
L 1075 4666 
z
" transform="scale(0.015625)"/>
     </defs>
     <use xlink:href="#DejaVuSans-43" transform="translate(0 0.234375)"/>
     <use xlink:href="#DejaVuSans-6f" transform="translate(69.824219 0.234375)"/>
     <use xlink:href="#DejaVuSans-6e" transform="translate(131.005859 0.234375)"/>
     <use xlink:href="#DejaVuSans-69" transform="translate(194.384766 0.234375)"/>
     <use xlink:href="#DejaVuSans-63" transform="translate(222.167969 0.234375)"/>
     <use xlink:href="#DejaVuSans-61" transform="translate(277.148438 0.234375)"/>
     <use xlink:href="#DejaVuSans-6c" transform="translate(338.427734 0.234375)"/>
     <use xlink:href="#DejaVuSans-20" transform="translate(366.210938 0.234375)"/>
     <use xlink:href="#DejaVuSans-4e" transform="translate(397.998047 0.234375)"/>
     <use xlink:href="#DejaVuSans-6f" transform="translate(472.802734 0.234375)"/>
     <use xlink:href="#DejaVuSans-7a" transform="translate(533.984375 0.234375)"/>
     <use xlink:href="#DejaVuSans-7a" transform="translate(586.474609 0.234375)"/>
     <use xlink:href="#DejaVuSans-6c" transform="translate(638.964844 0.234375)"/>
     <use xlink:href="#DejaVuSans-65" transform="translate(666.748047 0.234375)"/>
     <use xlink:href="#DejaVuSans-20" transform="translate(728.271484 0.234375)"/>
     <use xlink:href="#DejaVuSans-20" transform="translate(760.058594 0.234375)"/>
     <use xlink:href="#DejaVuSans-7c" transform="translate(791.845703 0.234375)"/>
     <use xlink:href="#DejaVuSans-20" transform="translate(825.537109 0.234375)"/>
     <use xlink:href="#DejaVuSans-20" transform="translate(857.324219 0.234375)"/>
     <use xlink:href="#DejaVuSans-Oblique-3b8" transform="translate(889.111328 0.234375)"/>
     <use xlink:href="#DejaVuSans-Oblique-63" transform="translate(950.292969 -16.171875) scale(0.7)"/>
     <use xlink:href="#DejaVuSans-Oblique-6f" transform="translate(988.779297 -16.171875) scale(0.7)"/>
     <use xlink:href="#DejaVuSans-Oblique-6e" transform="translate(1031.606445 -16.171875) scale(0.7)"/>
     <use xlink:href="#DejaVuSans-Oblique-65" transform="translate(1075.97168 -16.171875) scale(0.7)"/>
     <use xlink:href="#DejaVuSans-20" transform="translate(1121.772461 0.234375)"/>
     <use xlink:href="#DejaVuSans-3d" transform="translate(1153.55957 0.234375)"/>
     <use xlink:href="#DejaVuSans-20" transform="translate(1237.348633 0.234375)"/>
     <use xlink:href="#DejaVuSans-31" transform="translate(1269.135742 0.234375)"/>
     <use xlink:href="#DejaVuSans-35" transform="translate(1332.758789 0.234375)"/>
     <use xlink:href="#DejaVuSans-2e" transform="translate(1396.381836 0.234375)"/>
     <use xlink:href="#DejaVuSans-30" transform="translate(1428.168945 0.234375)"/>
     <use xlink:href="#DejaVuSans-b0" transform="translate(1491.791992 0.234375)"/>
     <use xlink:href="#DejaVuSans-2c" transform="translate(1541.791992 0.234375)"/>
     <use xlink:href="#DejaVuSans-20" transform="translate(1573.579102 0.234375)"/>
     <use xlink:href="#DejaVuSans-20" transform="translate(1605.366211 0.234375)"/>
     <use xlink:href="#DejaVuSans-Oblique-4c" transform="translate(1637.15332 0.234375)"/>
     <use xlink:href="#DejaVuSans-Oblique-63" transform="translate(1692.866211 -16.171875) scale(0.7)"/>
     <use xlink:href="#DejaVuSans-Oblique-6f" transform="translate(1731.352539 -16.171875) scale(0.7)"/>
     <use xlink:href="#DejaVuSans-Oblique-6e" transform="translate(1774.179688 -16.171875) scale(0.7)"/>
     <use xlink:href="#DejaVuSans-Oblique-65" transform="translate(1818.544922 -16.171875) scale(0.7)"/>
     <use xlink:href="#DejaVuSans-20" transform="translate(1864.345703 0.234375)"/>
     <use xlink:href="#DejaVuSans-3d" transform="translate(1896.132812 0.234375)"/>
     <use xlink:href="#DejaVuSans-20" transform="translate(1979.921875 0.234375)"/>
     <use xlink:href="#DejaVuSans-31" transform="translate(2011.708984 0.234375)"/>
     <use xlink:href="#DejaVuSans-35" transform="translate(2075.332031 0.234375)"/>
     <use xlink:href="#DejaVuSans-30" transform="translate(2138.955078 0.234375)"/>
     <use xlink:href="#DejaVuSans-2e" transform="translate(2202.578125 0.234375)"/>
     <use xlink:href="#DejaVuSans-30" transform="translate(2234.365234 0.234375)"/>
     <use xlink:href="#DejaVuSans-20" transform="translate(2297.988281 0.234375)"/>
     <use xlink:href="#DejaVuSans-69" transform="translate(2329.775391 0.234375)"/>
     <use xlink:href="#DejaVuSans-6e" transform="translate(2357.558594 0.234375)"/>
    </g>
   </g>
   <g id="legend_2">
    <g id="patch_13">
     <path d="M 722.003812 319.538372 
L 786.510062 319.538372 
Q 788.110062 319.538372 788.110062 317.938372 
L 788.110062 295.253372 
Q 788.110062 293.653372 786.510062 293.653372 
L 722.003812 293.653372 
Q 720.403812 293.653372 720.403812 295.253372 
L 720.403812 317.938372 
Q 720.403812 319.538372 722.003812 319.538372 
z
" style="fill: #ffffff; opacity: 0.8; stroke: #cccccc; stroke-linejoin: miter"/>
    </g>
    <g id="line2d_68">
     <path d="M 723.603812 300.132122 
L 731.603812 300.132122 
L 739.603812 300.132122 
" style="fill: none; stroke: #1f77b4; stroke-width: 1.8; stroke-linecap: square"/>
    </g>
    <g id="text_35">
     <!-- Inner arc -->
     <g transform="translate(746.003812 302.932122) scale(0.08 -0.08)">
      <use xlink:href="#DejaVuSans-49"/>
      <use xlink:href="#DejaVuSans-6e" transform="translate(29.492188 0)"/>
      <use xlink:href="#DejaVuSans-6e" transform="translate(92.871094 0)"/>
      <use xlink:href="#DejaVuSans-65" transform="translate(156.25 0)"/>
      <use xlink:href="#DejaVuSans-72" transform="translate(217.773438 0)"/>
      <use xlink:href="#DejaVuSans-20" transform="translate(258.886719 0)"/>
      <use xlink:href="#DejaVuSans-61" transform="translate(290.673828 0)"/>
      <use xlink:href="#DejaVuSans-72" transform="translate(351.953125 0)"/>
      <use xlink:href="#DejaVuSans-63" transform="translate(390.816406 0)"/>
     </g>
    </g>
    <g id="line2d_69">
     <path d="M 723.603812 311.874622 
L 731.603812 311.874622 
L 739.603812 311.874622 
" style="fill: none; stroke: #ff7f0e; stroke-width: 1.8; stroke-linecap: square"/>
    </g>
    <g id="text_36">
     <!-- Cone wall -->
     <g transform="translate(746.003812 314.674622) scale(0.08 -0.08)">
      <defs>
       <path id="DejaVuSans-77" d="M 269 3500 
L 844 3500 
L 1563 769 
L 2278 3500 
L 2956 3500 
L 3675 769 
L 4391 3500 
L 4966 3500 
L 4050 0 
L 3372 0 
L 2619 2869 
L 1863 0 
L 1184 0 
L 269 3500 
z
" transform="scale(0.015625)"/>
      </defs>
      <use xlink:href="#DejaVuSans-43"/>
      <use xlink:href="#DejaVuSans-6f" transform="translate(69.824219 0)"/>
      <use xlink:href="#DejaVuSans-6e" transform="translate(131.005859 0)"/>
      <use xlink:href="#DejaVuSans-65" transform="translate(194.384766 0)"/>
      <use xlink:href="#DejaVuSans-20" transform="translate(255.908203 0)"/>
      <use xlink:href="#DejaVuSans-77" transform="translate(287.695312 0)"/>
      <use xlink:href="#DejaVuSans-61" transform="translate(369.482422 0)"/>
      <use xlink:href="#DejaVuSans-6c" transform="translate(430.761719 0)"/>
      <use xlink:href="#DejaVuSans-6c" transform="translate(458.544922 0)"/>
     </g>
    </g>
   </g>
  </g>
  <g id="text_37">
   <!-- AE 771 — Supersonic Nozzle Profiles (SSME) -->
   <g transform="translate(340.067641 17.077969) scale(0.13 -0.13)">
    <defs>
     <path id="DejaVuSans-41" d="M 2188 4044 
L 1331 1722 
L 3047 1722 
L 2188 4044 
z
M 1831 4666 
L 2547 4666 
L 4325 0 
L 3669 0 
L 3244 1197 
L 1141 1197 
L 716 0 
L 50 0 
L 1831 4666 
z
" transform="scale(0.015625)"/>
     <path id="DejaVuSans-45" d="M 628 4666 
L 3578 4666 
L 3578 4134 
L 1259 4134 
L 1259 2753 
L 3481 2753 
L 3481 2222 
L 1259 2222 
L 1259 531 
L 3634 531 
L 3634 0 
L 628 0 
L 628 4666 
z
" transform="scale(0.015625)"/>
     <path id="DejaVuSans-37" d="M 525 4666 
L 3525 4666 
L 3525 4397 
L 1831 0 
L 1172 0 
L 2766 4134 
L 525 4134 
L 525 4666 
z
" transform="scale(0.015625)"/>
     <path id="DejaVuSans-2014" d="M 313 1978 
L 6088 1978 
L 6088 1528 
L 313 1528 
L 313 1978 
z
" transform="scale(0.015625)"/>
     <path id="DejaVuSans-53" d="M 3425 4513 
L 3425 3897 
Q 3066 4069 2747 4153 
Q 2428 4238 2131 4238 
Q 1616 4238 1336 4038 
Q 1056 3838 1056 3469 
Q 1056 3159 1242 3001 
Q 1428 2844 1947 2747 
L 2328 2669 
Q 3034 2534 3370 2195 
Q 3706 1856 3706 1288 
Q 3706 609 3251 259 
Q 2797 -91 1919 -91 
Q 1588 -91 1214 -16 
Q 841 59 441 206 
L 441 856 
Q 825 641 1194 531 
Q 1563 422 1919 422 
Q 2459 422 2753 634 
Q 3047 847 3047 1241 
Q 3047 1584 2836 1778 
Q 2625 1972 2144 2069 
L 1759 2144 
Q 1053 2284 737 2584 
Q 422 2884 422 3419 
Q 422 4038 858 4394 
Q 1294 4750 2059 4750 
Q 2388 4750 2728 4690 
Q 3069 4631 3425 4513 
z
" transform="scale(0.015625)"/>
     <path id="DejaVuSans-70" d="M 1159 525 
L 1159 -1331 
L 581 -1331 
L 581 3500 
L 1159 3500 
L 1159 2969 
Q 1341 3281 1617 3432 
Q 1894 3584 2278 3584 
Q 2916 3584 3314 3078 
Q 3713 2572 3713 1747 
Q 3713 922 3314 415 
Q 2916 -91 2278 -91 
Q 1894 -91 1617 61 
Q 1341 213 1159 525 
z
M 3116 1747 
Q 3116 2381 2855 2742 
Q 2594 3103 2138 3103 
Q 1681 3103 1420 2742 
Q 1159 2381 1159 1747 
Q 1159 1113 1420 752 
Q 1681 391 2138 391 
Q 2594 391 2855 752 
Q 3116 1113 3116 1747 
z
" transform="scale(0.015625)"/>
     <path id="DejaVuSans-73" d="M 2834 3397 
L 2834 2853 
Q 2591 2978 2328 3040 
Q 2066 3103 1784 3103 
Q 1356 3103 1142 2972 
Q 928 2841 928 2578 
Q 928 2378 1081 2264 
Q 1234 2150 1697 2047 
L 1894 2003 
Q 2506 1872 2764 1633 
Q 3022 1394 3022 966 
Q 3022 478 2636 193 
Q 2250 -91 1575 -91 
Q 1294 -91 989 -36 
Q 684 19 347 128 
L 347 722 
Q 666 556 975 473 
Q 1284 391 1588 391 
Q 1994 391 2212 530 
Q 2431 669 2431 922 
Q 2431 1156 2273 1281 
Q 2116 1406 1581 1522 
L 1381 1569 
Q 847 1681 609 1914 
Q 372 2147 372 2553 
Q 372 3047 722 3315 
Q 1072 3584 1716 3584 
Q 2034 3584 2315 3537 
Q 2597 3491 2834 3397 
z
" transform="scale(0.015625)"/>
     <path id="DejaVuSans-66" d="M 2375 4863 
L 2375 4384 
L 1825 4384 
Q 1516 4384 1395 4259 
Q 1275 4134 1275 3809 
L 1275 3500 
L 2222 3500 
L 2222 3053 
L 1275 3053 
L 1275 0 
L 697 0 
L 697 3053 
L 147 3053 
L 147 3500 
L 697 3500 
L 697 3744 
Q 697 4328 969 4595 
Q 1241 4863 1831 4863 
L 2375 4863 
z
" transform="scale(0.015625)"/>
     <path id="DejaVuSans-4d" d="M 628 4666 
L 1569 4666 
L 2759 1491 
L 3956 4666 
L 4897 4666 
L 4897 0 
L 4281 0 
L 4281 4097 
L 3078 897 
L 2444 897 
L 1241 4097 
L 1241 0 
L 628 0 
L 628 4666 
z
" transform="scale(0.015625)"/>
    </defs>
    <use xlink:href="#DejaVuSans-41"/>
    <use xlink:href="#DejaVuSans-45" transform="translate(68.408203 0)"/>
    <use xlink:href="#DejaVuSans-20" transform="translate(131.591797 0)"/>
    <use xlink:href="#DejaVuSans-37" transform="translate(163.378906 0)"/>
    <use xlink:href="#DejaVuSans-37" transform="translate(227.001953 0)"/>
    <use xlink:href="#DejaVuSans-31" transform="translate(290.625 0)"/>
    <use xlink:href="#DejaVuSans-20" transform="translate(354.248047 0)"/>
    <use xlink:href="#DejaVuSans-2014" transform="translate(386.035156 0)"/>
    <use xlink:href="#DejaVuSans-20" transform="translate(486.035156 0)"/>
    <use xlink:href="#DejaVuSans-53" transform="translate(517.822266 0)"/>
    <use xlink:href="#DejaVuSans-75" transform="translate(581.298828 0)"/>
    <use xlink:href="#DejaVuSans-70" transform="translate(644.677734 0)"/>
    <use xlink:href="#DejaVuSans-65" transform="translate(708.154297 0)"/>
    <use xlink:href="#DejaVuSans-72" transform="translate(769.677734 0)"/>
    <use xlink:href="#DejaVuSans-73" transform="translate(810.791016 0)"/>
    <use xlink:href="#DejaVuSans-6f" transform="translate(862.890625 0)"/>
    <use xlink:href="#DejaVuSans-6e" transform="translate(924.072266 0)"/>
    <use xlink:href="#DejaVuSans-69" transform="translate(987.451172 0)"/>
    <use xlink:href="#DejaVuSans-63" transform="translate(1015.234375 0)"/>
    <use xlink:href="#DejaVuSans-20" transform="translate(1070.214844 0)"/>
    <use xlink:href="#DejaVuSans-4e" transform="translate(1102.001953 0)"/>
    <use xlink:href="#DejaVuSans-6f" transform="translate(1176.806641 0)"/>
    <use xlink:href="#DejaVuSans-7a" transform="translate(1237.988281 0)"/>
    <use xlink:href="#DejaVuSans-7a" transform="translate(1290.478516 0)"/>
    <use xlink:href="#DejaVuSans-6c" transform="translate(1342.96875 0)"/>
    <use xlink:href="#DejaVuSans-65" transform="translate(1370.751953 0)"/>
    <use xlink:href="#DejaVuSans-20" transform="translate(1432.275391 0)"/>
    <use xlink:href="#DejaVuSans-50" transform="translate(1464.0625 0)"/>
    <use xlink:href="#DejaVuSans-72" transform="translate(1522.615234 0)"/>
    <use xlink:href="#DejaVuSans-6f" transform="translate(1561.478516 0)"/>
    <use xlink:href="#DejaVuSans-66" transform="translate(1622.660156 0)"/>
    <use xlink:href="#DejaVuSans-69" transform="translate(1657.865234 0)"/>
    <use xlink:href="#DejaVuSans-6c" transform="translate(1685.648438 0)"/>
    <use xlink:href="#DejaVuSans-65" transform="translate(1713.431641 0)"/>
    <use xlink:href="#DejaVuSans-73" transform="translate(1774.955078 0)"/>
    <use xlink:href="#DejaVuSans-20" transform="translate(1827.054688 0)"/>
    <use xlink:href="#DejaVuSans-28" transform="translate(1858.841797 0)"/>
    <use xlink:href="#DejaVuSans-53" transform="translate(1897.855469 0)"/>
    <use xlink:href="#DejaVuSans-53" transform="translate(1961.332031 0)"/>
    <use xlink:href="#DejaVuSans-4d" transform="translate(2024.808594 0)"/>
    <use xlink:href="#DejaVuSans-45" transform="translate(2111.087891 0)"/>
    <use xlink:href="#DejaVuSans-29" transform="translate(2174.271484 0)"/>
   </g>
  </g>
 </g>
 <defs>
  <clipPath id="pe226f9696a">
   <rect x="48.982813" y="49.775412" width="413.34825" height="292.169175"/>
  </clipPath>
  <clipPath id="p9189e13c7c">
   <rect x="531.381937" y="68.181628" width="445.75" height="255.356744"/>
  </clipPath>
 </defs>
</svg>
